<mxfile host="65bd71144e">
    <diagram id="QwqMATYTbQNphsK03qQ8" name="Page-1">
        <mxGraphModel dx="598" dy="1190" grid="1" gridSize="10" guides="1" tooltips="1" connect="1" arrows="1" fold="1" page="0" pageScale="1" pageWidth="1654" pageHeight="1169" math="0" shadow="0">
            <root>
                <mxCell id="0"/>
                <mxCell id="1" parent="0"/>
                <mxCell id="0lFgRPR0kxqmGjOikTGo-10" style="edgeStyle=orthogonalEdgeStyle;rounded=0;orthogonalLoop=1;jettySize=auto;html=1;entryX=0;entryY=0.25;entryDx=0;entryDy=0;" parent="1" source="0lFgRPR0kxqmGjOikTGo-1" target="0lFgRPR0kxqmGjOikTGo-16" edge="1">
                    <mxGeometry relative="1" as="geometry">
                        <mxPoint x="400" y="-90" as="targetPoint"/>
                    </mxGeometry>
                </mxCell>
                <mxCell id="0lFgRPR0kxqmGjOikTGo-11" style="edgeStyle=orthogonalEdgeStyle;rounded=0;orthogonalLoop=1;jettySize=auto;html=1;exitX=1;exitY=0.5;exitDx=0;exitDy=0;entryX=0;entryY=0.75;entryDx=0;entryDy=0;" parent="1" source="0lFgRPR0kxqmGjOikTGo-1" target="0lFgRPR0kxqmGjOikTGo-16" edge="1">
                    <mxGeometry relative="1" as="geometry">
                        <mxPoint x="410" y="100" as="targetPoint"/>
                    </mxGeometry>
                </mxCell>
                <mxCell id="0lFgRPR0kxqmGjOikTGo-1" value="Select Elements to be reference" style="rounded=0;whiteSpace=wrap;html=1;" parent="1" vertex="1">
                    <mxGeometry x="250" y="-30" width="120" height="60" as="geometry"/>
                </mxCell>
                <mxCell id="0lFgRPR0kxqmGjOikTGo-36" value="" style="edgeStyle=orthogonalEdgeStyle;rounded=0;orthogonalLoop=1;jettySize=auto;html=1;" parent="1" source="0lFgRPR0kxqmGjOikTGo-2" target="0lFgRPR0kxqmGjOikTGo-35" edge="1">
                    <mxGeometry relative="1" as="geometry"/>
                </mxCell>
                <mxCell id="0lFgRPR0kxqmGjOikTGo-2" value="Select Element to be moved" style="rounded=0;whiteSpace=wrap;html=1;" parent="1" vertex="1">
                    <mxGeometry x="250" y="560" width="120" height="60" as="geometry"/>
                </mxCell>
                <mxCell id="0lFgRPR0kxqmGjOikTGo-20" style="edgeStyle=orthogonalEdgeStyle;rounded=0;orthogonalLoop=1;jettySize=auto;html=1;entryX=0;entryY=0.5;entryDx=0;entryDy=0;" parent="1" source="0lFgRPR0kxqmGjOikTGo-8" target="0lFgRPR0kxqmGjOikTGo-18" edge="1">
                    <mxGeometry relative="1" as="geometry"/>
                </mxCell>
                <mxCell id="0lFgRPR0kxqmGjOikTGo-8" value="Create OrFilter" style="rounded=0;whiteSpace=wrap;html=1;" parent="1" vertex="1">
                    <mxGeometry x="810" y="-20" width="120" height="60" as="geometry"/>
                </mxCell>
                <mxCell id="0lFgRPR0kxqmGjOikTGo-17" style="edgeStyle=orthogonalEdgeStyle;rounded=0;orthogonalLoop=1;jettySize=auto;html=1;entryX=0;entryY=0.5;entryDx=0;entryDy=0;" parent="1" source="0lFgRPR0kxqmGjOikTGo-16" target="0lFgRPR0kxqmGjOikTGo-8" edge="1">
                    <mxGeometry relative="1" as="geometry"/>
                </mxCell>
                <mxCell id="0lFgRPR0kxqmGjOikTGo-16" value="Selected Built-In-Parameters" style="swimlane;" parent="1" vertex="1">
                    <mxGeometry x="500" y="-110" width="240" height="240" as="geometry"/>
                </mxCell>
                <mxCell id="0lFgRPR0kxqmGjOikTGo-7" value="get built in parameter" style="rounded=0;whiteSpace=wrap;html=1;" parent="0lFgRPR0kxqmGjOikTGo-16" vertex="1">
                    <mxGeometry x="60" y="40" width="120" height="60" as="geometry"/>
                </mxCell>
                <mxCell id="0lFgRPR0kxqmGjOikTGo-3" value="get built in parameter" style="rounded=0;whiteSpace=wrap;html=1;" parent="0lFgRPR0kxqmGjOikTGo-16" vertex="1">
                    <mxGeometry x="60" y="140" width="120" height="60" as="geometry"/>
                </mxCell>
                <mxCell id="0lFgRPR0kxqmGjOikTGo-12" value="" style="endArrow=none;dashed=1;html=1;dashPattern=1 3;strokeWidth=2;rounded=0;entryX=0.5;entryY=1;entryDx=0;entryDy=0;exitX=0.5;exitY=1;exitDx=0;exitDy=0;" parent="0lFgRPR0kxqmGjOikTGo-16" source="0lFgRPR0kxqmGjOikTGo-16" target="0lFgRPR0kxqmGjOikTGo-3" edge="1">
                    <mxGeometry width="50" height="50" relative="1" as="geometry">
                        <mxPoint x="120" y="310" as="sourcePoint"/>
                        <mxPoint x="140" y="270" as="targetPoint"/>
                    </mxGeometry>
                </mxCell>
                <mxCell id="0lFgRPR0kxqmGjOikTGo-22" value="" style="edgeStyle=orthogonalEdgeStyle;rounded=0;orthogonalLoop=1;jettySize=auto;html=1;" parent="1" source="0lFgRPR0kxqmGjOikTGo-18" target="0lFgRPR0kxqmGjOikTGo-21" edge="1">
                    <mxGeometry relative="1" as="geometry"/>
                </mxCell>
                <mxCell id="0lFgRPR0kxqmGjOikTGo-18" value="Reference Intersector" style="swimlane;" parent="1" vertex="1">
                    <mxGeometry x="1000" y="-105" width="290" height="230" as="geometry"/>
                </mxCell>
                <mxCell id="0lFgRPR0kxqmGjOikTGo-19" value="FindReferencesInRevitLinks : True" style="rounded=0;whiteSpace=wrap;html=1;" parent="0lFgRPR0kxqmGjOikTGo-18" vertex="1">
                    <mxGeometry x="40" y="40" width="210" height="60" as="geometry"/>
                </mxCell>
                <mxCell id="0lFgRPR0kxqmGjOikTGo-24" value="" style="edgeStyle=orthogonalEdgeStyle;rounded=0;orthogonalLoop=1;jettySize=auto;html=1;" parent="1" source="0lFgRPR0kxqmGjOikTGo-21" target="0lFgRPR0kxqmGjOikTGo-23" edge="1">
                    <mxGeometry relative="1" as="geometry"/>
                </mxCell>
                <mxCell id="0lFgRPR0kxqmGjOikTGo-21" value="Find" style="rhombus;whiteSpace=wrap;html=1;fontStyle=1;startSize=23;" parent="1" vertex="1">
                    <mxGeometry x="1360" y="-30" width="81" height="80" as="geometry"/>
                </mxCell>
                <mxCell id="0lFgRPR0kxqmGjOikTGo-29" value="" style="edgeStyle=orthogonalEdgeStyle;rounded=0;orthogonalLoop=1;jettySize=auto;html=1;" parent="1" source="0lFgRPR0kxqmGjOikTGo-23" target="0lFgRPR0kxqmGjOikTGo-28" edge="1">
                    <mxGeometry relative="1" as="geometry"/>
                </mxCell>
                <mxCell id="0lFgRPR0kxqmGjOikTGo-31" style="edgeStyle=orthogonalEdgeStyle;rounded=0;orthogonalLoop=1;jettySize=auto;html=1;entryX=0;entryY=0.5;entryDx=0;entryDy=0;" parent="1" source="0lFgRPR0kxqmGjOikTGo-23" target="0lFgRPR0kxqmGjOikTGo-30" edge="1">
                    <mxGeometry relative="1" as="geometry"/>
                </mxCell>
                <mxCell id="0lFgRPR0kxqmGjOikTGo-33" style="edgeStyle=orthogonalEdgeStyle;rounded=0;orthogonalLoop=1;jettySize=auto;html=1;exitX=1;exitY=0.5;exitDx=0;exitDy=0;entryX=0;entryY=0.5;entryDx=0;entryDy=0;" parent="1" source="0lFgRPR0kxqmGjOikTGo-23" target="0lFgRPR0kxqmGjOikTGo-32" edge="1">
                    <mxGeometry relative="1" as="geometry"/>
                </mxCell>
                <mxCell id="0lFgRPR0kxqmGjOikTGo-23" value="GetReference().GlobalPoint" style="whiteSpace=wrap;html=1;fontStyle=1;startSize=23;" parent="1" vertex="1">
                    <mxGeometry x="1470" y="-20" width="195" height="60" as="geometry"/>
                </mxCell>
                <mxCell id="dl8wufPjnx5KJZaGX9wS-3" style="edgeStyle=orthogonalEdgeStyle;rounded=0;orthogonalLoop=1;jettySize=auto;html=1;exitX=1;exitY=0.5;exitDx=0;exitDy=0;entryX=0.5;entryY=0;entryDx=0;entryDy=0;" parent="1" source="0lFgRPR0kxqmGjOikTGo-28" target="dl8wufPjnx5KJZaGX9wS-1" edge="1">
                    <mxGeometry relative="1" as="geometry"/>
                </mxCell>
                <mxCell id="dl8wufPjnx5KJZaGX9wS-8" style="edgeStyle=orthogonalEdgeStyle;rounded=0;orthogonalLoop=1;jettySize=auto;html=1;jumpStyle=arc;entryX=0.5;entryY=0;entryDx=0;entryDy=0;" parent="1" source="0lFgRPR0kxqmGjOikTGo-28" target="dl8wufPjnx5KJZaGX9wS-6" edge="1">
                    <mxGeometry relative="1" as="geometry">
                        <mxPoint x="2350" y="280" as="targetPoint"/>
                    </mxGeometry>
                </mxCell>
                <mxCell id="dl8wufPjnx5KJZaGX9wS-12" style="edgeStyle=orthogonalEdgeStyle;rounded=0;jumpStyle=arc;orthogonalLoop=1;jettySize=auto;html=1;entryX=0.5;entryY=0;entryDx=0;entryDy=0;" parent="1" source="0lFgRPR0kxqmGjOikTGo-28" target="dl8wufPjnx5KJZaGX9wS-10" edge="1">
                    <mxGeometry relative="1" as="geometry"/>
                </mxCell>
                <mxCell id="dl8wufPjnx5KJZaGX9wS-17" style="edgeStyle=orthogonalEdgeStyle;rounded=0;jumpStyle=arc;orthogonalLoop=1;jettySize=auto;html=1;" parent="1" source="0lFgRPR0kxqmGjOikTGo-28" target="dl8wufPjnx5KJZaGX9wS-13" edge="1">
                    <mxGeometry relative="1" as="geometry"/>
                </mxCell>
                <mxCell id="0lFgRPR0kxqmGjOikTGo-28" value="Get Highest Z" style="whiteSpace=wrap;html=1;fontStyle=1;startSize=23;" parent="1" vertex="1">
                    <mxGeometry x="1730" y="-20" width="150" height="60" as="geometry"/>
                </mxCell>
                <mxCell id="0lFgRPR0kxqmGjOikTGo-30" value="Get Lowest Z&lt;br&gt;(Under Development)" style="whiteSpace=wrap;html=1;fontStyle=1;startSize=23;fillColor=#d5e8d4;strokeColor=#82b366;" parent="1" vertex="1">
                    <mxGeometry x="1730" y="80" width="150" height="60" as="geometry"/>
                </mxCell>
                <mxCell id="0lFgRPR0kxqmGjOikTGo-32" value="Get Preferred Z&lt;br&gt;(Under Development)" style="whiteSpace=wrap;html=1;fontStyle=1;startSize=23;fillColor=#d5e8d4;strokeColor=#82b366;" parent="1" vertex="1">
                    <mxGeometry x="1730" y="180" width="150" height="60" as="geometry"/>
                </mxCell>
                <mxCell id="0lFgRPR0kxqmGjOikTGo-38" value="" style="edgeStyle=orthogonalEdgeStyle;rounded=0;orthogonalLoop=1;jettySize=auto;html=1;entryX=0;entryY=0.5;entryDx=0;entryDy=0;" parent="1" source="0lFgRPR0kxqmGjOikTGo-35" target="0lFgRPR0kxqmGjOikTGo-37" edge="1">
                    <mxGeometry relative="1" as="geometry"/>
                </mxCell>
                <mxCell id="0lFgRPR0kxqmGjOikTGo-40" value="" style="edgeStyle=orthogonalEdgeStyle;rounded=0;orthogonalLoop=1;jettySize=auto;html=1;entryX=0;entryY=0.5;entryDx=0;entryDy=0;" parent="1" source="0lFgRPR0kxqmGjOikTGo-35" target="0lFgRPR0kxqmGjOikTGo-39" edge="1">
                    <mxGeometry relative="1" as="geometry"/>
                </mxCell>
                <mxCell id="0lFgRPR0kxqmGjOikTGo-43" value="" style="edgeStyle=orthogonalEdgeStyle;rounded=0;orthogonalLoop=1;jettySize=auto;html=1;entryX=0;entryY=0.5;entryDx=0;entryDy=0;" parent="1" source="0lFgRPR0kxqmGjOikTGo-35" target="0lFgRPR0kxqmGjOikTGo-42" edge="1">
                    <mxGeometry relative="1" as="geometry"/>
                </mxCell>
                <mxCell id="0lFgRPR0kxqmGjOikTGo-49" value="" style="edgeStyle=orthogonalEdgeStyle;rounded=0;orthogonalLoop=1;jettySize=auto;html=1;entryX=0;entryY=0.5;entryDx=0;entryDy=0;" parent="1" source="0lFgRPR0kxqmGjOikTGo-35" target="0lFgRPR0kxqmGjOikTGo-48" edge="1">
                    <mxGeometry relative="1" as="geometry"/>
                </mxCell>
                <mxCell id="0lFgRPR0kxqmGjOikTGo-35" value="object.Location" style="rounded=0;whiteSpace=wrap;html=1;" parent="1" vertex="1">
                    <mxGeometry x="810" y="560" width="120" height="60" as="geometry"/>
                </mxCell>
                <mxCell id="dl8wufPjnx5KJZaGX9wS-14" value="" style="edgeStyle=orthogonalEdgeStyle;rounded=0;jumpStyle=arc;orthogonalLoop=1;jettySize=auto;html=1;" parent="1" source="0lFgRPR0kxqmGjOikTGo-37" target="dl8wufPjnx5KJZaGX9wS-13" edge="1">
                    <mxGeometry relative="1" as="geometry"/>
                </mxCell>
                <mxCell id="0lFgRPR0kxqmGjOikTGo-37" value="LocationPoint(Single Placement Point(Generic...)" style="rounded=0;whiteSpace=wrap;html=1;" parent="1" vertex="1">
                    <mxGeometry x="1430" y="850" width="450" height="60" as="geometry"/>
                </mxCell>
                <mxCell id="dl8wufPjnx5KJZaGX9wS-7" value="" style="edgeStyle=orthogonalEdgeStyle;rounded=0;orthogonalLoop=1;jettySize=auto;html=1;" parent="1" source="0lFgRPR0kxqmGjOikTGo-39" target="dl8wufPjnx5KJZaGX9wS-6" edge="1">
                    <mxGeometry relative="1" as="geometry"/>
                </mxCell>
                <mxCell id="0lFgRPR0kxqmGjOikTGo-39" value="Generic Model - Adaptive&lt;br&gt;(AdaptiveComponentInstanceUtils.GetInstancePlacementPointElementRefIds)" style="rounded=0;whiteSpace=wrap;html=1;" parent="1" vertex="1">
                    <mxGeometry x="1430" y="477" width="450" height="60" as="geometry"/>
                </mxCell>
                <mxCell id="dl8wufPjnx5KJZaGX9wS-11" value="" style="edgeStyle=orthogonalEdgeStyle;rounded=0;jumpStyle=arc;orthogonalLoop=1;jettySize=auto;html=1;" parent="1" source="0lFgRPR0kxqmGjOikTGo-42" target="dl8wufPjnx5KJZaGX9wS-10" edge="1">
                    <mxGeometry relative="1" as="geometry"/>
                </mxCell>
                <mxCell id="0lFgRPR0kxqmGjOikTGo-42" value="LocationCurve(Pipe, Structural Framing...)" style="rounded=0;whiteSpace=wrap;html=1;" parent="1" vertex="1">
                    <mxGeometry x="1430" y="663" width="450" height="60" as="geometry"/>
                </mxCell>
                <mxCell id="dl8wufPjnx5KJZaGX9wS-2" value="" style="edgeStyle=orthogonalEdgeStyle;rounded=0;orthogonalLoop=1;jettySize=auto;html=1;" parent="1" source="0lFgRPR0kxqmGjOikTGo-48" target="dl8wufPjnx5KJZaGX9wS-1" edge="1">
                    <mxGeometry relative="1" as="geometry"/>
                </mxCell>
                <mxCell id="0lFgRPR0kxqmGjOikTGo-48" value="Floor&lt;br&gt;(Move Subelement)" style="whiteSpace=wrap;html=1;rounded=0;" parent="1" vertex="1">
                    <mxGeometry x="1430" y="290" width="450" height="60" as="geometry"/>
                </mxCell>
                <mxCell id="dl8wufPjnx5KJZaGX9wS-5" value="" style="edgeStyle=orthogonalEdgeStyle;rounded=0;orthogonalLoop=1;jettySize=auto;html=1;jumpStyle=arc;" parent="1" source="dl8wufPjnx5KJZaGX9wS-1" target="dl8wufPjnx5KJZaGX9wS-4" edge="1">
                    <mxGeometry relative="1" as="geometry"/>
                </mxCell>
                <mxCell id="dl8wufPjnx5KJZaGX9wS-1" value="#setSlabShapeVertex" style="whiteSpace=wrap;html=1;rounded=0;" parent="1" vertex="1">
                    <mxGeometry x="1950" y="290" width="120" height="60" as="geometry"/>
                </mxCell>
                <mxCell id="dl8wufPjnx5KJZaGX9wS-4" value="Finish" style="whiteSpace=wrap;html=1;rounded=0;" parent="1" vertex="1">
                    <mxGeometry x="2725" y="560" width="120" height="60" as="geometry"/>
                </mxCell>
                <mxCell id="dl8wufPjnx5KJZaGX9wS-9" style="edgeStyle=orthogonalEdgeStyle;rounded=0;jumpStyle=arc;orthogonalLoop=1;jettySize=auto;html=1;entryX=0;entryY=0.5;entryDx=0;entryDy=0;" parent="1" source="dl8wufPjnx5KJZaGX9wS-6" target="dl8wufPjnx5KJZaGX9wS-4" edge="1">
                    <mxGeometry relative="1" as="geometry">
                        <Array as="points">
                            <mxPoint x="2565" y="507"/>
                            <mxPoint x="2565" y="590"/>
                        </Array>
                    </mxGeometry>
                </mxCell>
                <mxCell id="dl8wufPjnx5KJZaGX9wS-6" value="ElementTransformUtils.MoveElement" style="whiteSpace=wrap;html=1;rounded=0;" parent="1" vertex="1">
                    <mxGeometry x="2035" y="477" width="215" height="60" as="geometry"/>
                </mxCell>
                <mxCell id="dl8wufPjnx5KJZaGX9wS-15" style="edgeStyle=orthogonalEdgeStyle;rounded=0;jumpStyle=arc;orthogonalLoop=1;jettySize=auto;html=1;entryX=0;entryY=0.5;entryDx=0;entryDy=0;" parent="1" source="dl8wufPjnx5KJZaGX9wS-10" target="dl8wufPjnx5KJZaGX9wS-4" edge="1">
                    <mxGeometry relative="1" as="geometry">
                        <Array as="points">
                            <mxPoint x="2565" y="693"/>
                            <mxPoint x="2565" y="590"/>
                        </Array>
                    </mxGeometry>
                </mxCell>
                <mxCell id="dl8wufPjnx5KJZaGX9wS-10" value="setCurveTypeLocation" style="whiteSpace=wrap;html=1;rounded=0;" parent="1" vertex="1">
                    <mxGeometry x="2250" y="663" width="165" height="60" as="geometry"/>
                </mxCell>
                <mxCell id="dl8wufPjnx5KJZaGX9wS-16" style="edgeStyle=orthogonalEdgeStyle;rounded=0;jumpStyle=arc;orthogonalLoop=1;jettySize=auto;html=1;entryX=0.5;entryY=1;entryDx=0;entryDy=0;" parent="1" source="dl8wufPjnx5KJZaGX9wS-13" target="dl8wufPjnx5KJZaGX9wS-4" edge="1">
                    <mxGeometry relative="1" as="geometry"/>
                </mxCell>
                <mxCell id="dl8wufPjnx5KJZaGX9wS-13" value="setPointTypeLocation" style="whiteSpace=wrap;html=1;rounded=0;" parent="1" vertex="1">
                    <mxGeometry x="2415" y="850" width="135" height="60" as="geometry"/>
                </mxCell>
            </root>
        </mxGraphModel>
    </diagram>
</mxfile>